<svg width="30" height="30" viewBox="0 0 30 30" fill="none" xmlns="http://www.w3.org/2000/svg">
<path d="M4.5 6.75C4.5 5.50736 5.50736 4.5 6.75 4.5L11.25 4.5C12.4926 4.5 13.5 5.50736 13.5 6.75V11.25C13.5 12.4926 12.4926 13.5 11.25 13.5H6.75C5.50736 13.5 4.5 12.4926 4.5 11.25L4.5 6.75ZM6.75 6C6.33579 6 6 6.33579 6 6.75V11.25C6 11.6642 6.33579 12 6.75 12H11.25C11.6642 12 12 11.6642 12 11.25V6.75C12 6.33579 11.6642 6 11.25 6H6.75ZM16.5 6.75C16.5 5.50736 17.5074 4.5 18.75 4.5L23.25 4.5C24.4926 4.5 25.5 5.50736 25.5 6.75V11.25C25.5 12.4926 24.4926 13.5 23.25 13.5H18.75C17.5074 13.5 16.5 12.4926 16.5 11.25V6.75ZM18.75 6C18.3358 6 18 6.33579 18 6.75V11.25C18 11.6642 18.3358 12 18.75 12H23.25C23.6642 12 24 11.6642 24 11.25V6.75C24 6.33579 23.6642 6 23.25 6H18.75ZM4.5 18.75C4.5 17.5074 5.50736 16.5 6.75 16.5H11.25C12.4926 16.5 13.5 17.5074 13.5 18.75V23.25C13.5 24.4926 12.4926 25.5 11.25 25.5H6.75C5.50736 25.5 4.5 24.4926 4.5 23.25L4.5 18.75ZM6.75 18C6.33579 18 6 18.3358 6 18.75V23.25C6 23.6642 6.33579 24 6.75 24H11.25C11.6642 24 12 23.6642 12 23.25V18.75C12 18.3358 11.6642 18 11.25 18H6.75ZM16.5 18.75C16.5 17.5074 17.5074 16.5 18.75 16.5H23.25C24.4926 16.5 25.5 17.5074 25.5 18.75V23.25C25.5 24.4926 24.4926 25.5 23.25 25.5H18.75C17.5074 25.5 16.5 24.4926 16.5 23.25V18.75ZM18.75 18C18.3358 18 18 18.3358 18 18.75V23.25C18 23.6642 18.3358 24 18.75 24H23.25C23.6642 24 24 23.6642 24 23.25V18.75C24 18.3358 23.6642 18 23.25 18H18.75Z" fill="black"/>
</svg>
