<svg width="30" height="30" viewBox="0 0 30 30" fill="none" xmlns="http://www.w3.org/2000/svg">
<path d="M24 4.5C24.8284 4.5 25.5 5.17157 25.5 6V24C25.5 24.8284 24.8284 25.5 24 25.5H6C5.17157 25.5 4.5 24.8284 4.5 24V6C4.5 5.17157 5.17157 4.5 6 4.5H24ZM6 3C4.34315 3 3 4.34315 3 6V24C3 25.6569 4.34315 27 6 27H24C25.6569 27 27 25.6569 27 24V6C27 4.34315 25.6569 3 24 3H6Z" fill="black"/>
<path d="M15 9C15.4142 9 15.75 9.33579 15.75 9.75V14.25H20.25C20.6642 14.25 21 14.5858 21 15C21 15.4142 20.6642 15.75 20.25 15.75H15.75V20.25C15.75 20.6642 15.4142 21 15 21C14.5858 21 14.25 20.6642 14.25 20.25V15.75H9.75C9.33579 15.75 9 15.4142 9 15C9 14.5858 9.33579 14.25 9.75 14.25H14.25V9.75C14.25 9.33579 14.5858 9 15 9Z" fill="black"/>
</svg>
